<?xml version="1.0" encoding="utf-8"?>
<!-- Generator: Adobe Illustrator 19.0.0, SVG Export Plug-In . SVG Version: 6.00 Build 0)  -->
<svg version="1.1" id="layer" xmlns="http://www.w3.org/2000/svg" xmlns:xlink="http://www.w3.org/1999/xlink" x="0px" y="0px"
	 viewBox="-153 -46 652 652" style="enable-background:new -153 -46 652 652;" xml:space="preserve">
<style type="text/css">
	.st0{fill:#F6CA22;}
</style>
<path class="st0" d="M-17.4,243.6c-7.2,15.9-28.1,28.8-46.7,28.8h20.2c18.6,0,39.5-12.9,46.7-28.8c5.7-12.5,1.1-23.2-10.1-27.1
	h-20.2C-16.2,220.4-11.7,231.1-17.4,243.6L-17.4,243.6z"/>
<path d="M3.4,326.1l-1.6-19.6h5.4l0.2,1.4c1.9,12.8,8.3,19.2,19.1,19.2c4.7,0,8.7-1.5,12-4.5c3.3-3,5-6.6,5-10.8
	c0-2.6-0.9-4.9-2.6-6.9c-1.7-2-5.9-4.8-12.5-8.5l-6.5-3.6C9.8,285.8,3.6,278,3.6,269.5c0-6.3,2.3-11.4,6.8-15
	c4.5-3.7,10.7-5.5,18.4-5.5c6.6,0,13.8,1.5,21.6,4.4v16.4h-5.4l-0.2-1.3c-0.3-2.3-0.8-4.2-1.3-5.9c-0.5-1.6-1.3-3.1-2.4-4.3
	c-1-1.3-2.5-2.4-4.3-3.4c-1.9-1-4.6-1.6-8.3-1.6c-3.8,0-7,1.1-9.4,3.4c-2.4,2.3-3.7,5.2-3.7,8.7c0,5.2,4.8,10.5,14.4,16l7.2,4.1
	c7,4,11.8,7.6,14.5,11c2.6,3.4,4,7.6,4,12.5c0,6.8-2.7,12.3-8,16.4c-5.3,4.1-12.3,6.2-21,6.2C17.5,331.4,9.7,329.6,3.4,326.1
	 M104.2,322.7c-8.3,0-15.2-3-20.8-9.1c-5.6-6.1-8.4-13.7-8.4-22.9c0-0.6,0-1.7,0.1-3.3h52.2v-2.2c0-11.4-2.6-20.3-7.9-26.6
	c-5.2-6.4-12.6-9.6-22-9.6c-10.5,0-19.2,3.9-26.2,11.7c-7,7.8-10.4,17.7-10.4,29.5c0,12,3.6,21.8,10.9,29.6
	c7.3,7.7,16.5,11.6,27.8,11.6c9.4,0,19-2.9,28.9-8.8V316C120.2,320.5,112.1,322.7,104.2,322.7L104.2,322.7z M82.6,261.3
	c4-5.4,8.8-8.1,14.6-8.1c4.7,0,8.5,1.9,11.5,5.8c3,3.9,4.5,8.9,4.5,15c0,4-1.4,6.5-4.1,7.5c-2.7,1-9.2,1.6-19.5,1.6H75.3
	C76.2,273.9,78.6,266.7,82.6,261.3L82.6,261.3z M177.1,322.7c-8.3,0-15.2-3-20.8-9.1c-5.6-6.1-8.4-13.7-8.4-22.9
	c0-0.6,0-1.7,0.1-3.3h52.2v-2.2c0-11.4-2.6-20.3-7.9-26.6c-5.2-6.4-12.6-9.6-22-9.6c-10.5,0-19.2,3.9-26.2,11.7
	c-7,7.8-10.5,17.7-10.5,29.5c0,12,3.6,21.8,10.9,29.6c7.3,7.7,16.5,11.6,27.8,11.6c9.4,0,19-2.9,29-8.8V316
	C193,320.5,185,322.7,177.1,322.7L177.1,322.7z M155.4,261.3c4-5.4,8.8-8.1,14.6-8.1c4.7,0,8.5,1.9,11.5,5.8c3,3.9,4.5,8.9,4.5,15
	c0,4-1.4,6.5-4.1,7.5c-2.7,1-9.2,1.6-19.5,1.6h-14.2C149,273.9,151.4,266.7,155.4,261.3L155.4,261.3z M231.2,331.4l-20.7-61.7
	c-3.1-9.6-6.1-14.4-8.9-14.4h-0.9v-4.3h29.1v4.3h-0.9c-4.9,0-7.4,1.5-7.4,4.6c0,0.8,0.2,1.9,0.6,3.3c0.4,1.6,0.7,2.5,0.7,2.8
	c0.6,2.2,0.9,3.5,1,3.7l13.9,41.6l20.7-60.3h4.3l24.4,60.8l12.6-42.1c1.3-4.6,2-7.9,2-10c0-3-2-4.5-6-4.5h-1v-4.3h21.1v4.3h-1
	c-3.4,0-6.5,4.8-9.5,14.4l-18.9,61.6h-4.3l-24.8-62.6l-21.7,62.6H231.2 M358.2,322.7c-8.3,0-15.2-3-20.8-9.1
	c-5.6-6.1-8.4-13.7-8.4-22.9c0-0.6,0-1.7,0.1-3.3h52.2v-2.2c0-11.4-2.6-20.3-7.9-26.6c-5.2-6.4-12.6-9.6-22-9.6
	c-10.5,0-19.2,3.9-26.2,11.7c-7,7.8-10.5,17.7-10.5,29.5c0,12,3.6,21.8,10.9,29.6c7.3,7.7,16.5,11.6,27.8,11.6c9.4,0,19-2.9,29-8.8
	V316C374.2,320.5,366.1,322.7,358.2,322.7L358.2,322.7z M336.5,261.3c4-5.4,8.8-8.1,14.6-8.1c4.7,0,8.5,1.9,11.5,5.8
	c3,3.9,4.5,8.9,4.5,15c0,4-1.4,6.5-4.1,7.5c-2.7,1-9.2,1.6-19.5,1.6h-14.2C330.1,273.9,332.6,266.7,336.5,261.3L336.5,261.3z
	 M468.7,288.6v-1.9c-0.2-10.8-3.1-19.8-8.9-26.8c-5.9-7.3-13.5-10.9-22.7-10.9c-4.5,0-9.2,1.2-14,3.6c-4.8,2.4-9.8,6.1-14.9,10.9
	v-47.1h-5.5l-19.8,7.4v1l3.9,1.7c4.1,1.8,6.6,3.7,7.5,5.5c0.9,1.8,1.3,6.2,1.3,13v86.8l8-4.7c3.8,1.4,7.7,2.4,11.5,3.2
	c3.8,0.7,7.7,1.1,11.6,1.1c12.4,0,22.5-4.1,30.3-12.2C464.6,311.2,468.5,301,468.7,288.6 M419.3,262.6c3.6-1.5,7.1-2.3,10.4-2.3
	c7.4,0,13.5,3,18.2,9.1c4.7,6.1,7,13.9,7,23.6c0,9.7-2.3,17.7-7,24c-4.7,6.3-10.6,9.4-17.8,9.4c-3.9,0-7.8-1-11.9-3.1
	c-4-2-7.4-4.7-10.1-8.1v-45.9C412,266.4,415.7,264.1,419.3,262.6 M-45.3,275.7h-20.2c18.6,0,27.8,12.9,20.7,28.8
	c-7.2,15.9-28.1,28.8-46.7,28.8h20.2c18.6,0,39.5-12.9,46.7-28.8C-17.4,288.5-26.7,275.7-45.3,275.7 M-85.1,275.7h-20.2
	c18.6,0,27.8,12.9,20.7,28.8c-7.2,15.9-28.1,28.8-46.7,28.8h20.2c18.6,0,39.5-12.9,46.7-28.8C-57.3,288.5-66.5,275.7-85.1,275.7
	 M-67.3,216.5c11.2,4,15.8,14.6,10.1,27.1c-7.2,15.9-28.1,28.8-46.7,28.8h20.2c18.6,0,39.5-12.9,46.7-28.8
	c5.6-12.5,1.1-23.2-10.1-27.1L-67.3,216.5"/>
</svg>
